<svg width="19" height="19" viewBox="0 0 19 19" fill="none" xmlns="http://www.w3.org/2000/svg">
<path fill-rule="evenodd" clip-rule="evenodd" d="M14.6399 0.753906C14.8445 0.753906 15.0407 0.835181 15.1853 0.979851C15.33 1.12452 15.4113 1.32074 15.4113 1.52533V15.6681L17.1084 13.4053C17.1692 13.3242 17.2454 13.256 17.3325 13.2043C17.4197 13.1527 17.5162 13.1188 17.6165 13.1045C17.7168 13.0901 17.8189 13.0957 17.917 13.1208C18.0152 13.146 18.1074 13.1902 18.1884 13.251C18.2695 13.3118 18.3377 13.3879 18.3894 13.4751C18.441 13.5623 18.4749 13.6588 18.4892 13.759C18.5036 13.8593 18.498 13.9615 18.4729 14.0596C18.4477 14.1577 18.4035 14.2499 18.3427 14.331L15.257 18.4453C15.1599 18.5748 15.0244 18.6705 14.8699 18.7187C14.7153 18.767 14.5495 18.7654 14.3959 18.7142C14.2423 18.663 14.1087 18.5648 14.0141 18.4335C13.9194 18.3021 13.8684 18.1443 13.8684 17.9824V1.52533C13.8684 1.32074 13.9497 1.12452 14.0944 0.979851C14.2391 0.835181 14.4353 0.753906 14.6399 0.753906ZM4.61134 3.58247C4.61134 3.37787 4.69261 3.18166 4.83728 3.03698C4.98195 2.89231 5.17817 2.81104 5.38276 2.81104H10.5256C10.7302 2.81104 10.9264 2.89231 11.0711 3.03698C11.2157 3.18166 11.297 3.37787 11.297 3.58247C11.297 3.78706 11.2157 3.98327 11.0711 4.12795C10.9264 4.27262 10.7302 4.35389 10.5256 4.35389H5.38276C5.17817 4.35389 4.98195 4.27262 4.83728 4.12795C4.69261 3.98327 4.61134 3.78706 4.61134 3.58247ZM2.5542 8.7253C2.5542 8.5207 2.63548 8.32449 2.78015 8.17982C2.92482 8.03515 3.12103 7.95387 3.32563 7.95387H10.5256C10.7302 7.95387 10.9264 8.03515 11.0711 8.17982C11.2157 8.32449 11.297 8.5207 11.297 8.7253C11.297 8.92989 11.2157 9.12611 11.0711 9.27078C10.9264 9.41545 10.7302 9.49672 10.5256 9.49672H3.32563C3.12103 9.49672 2.92482 9.41545 2.78015 9.27078C2.63548 9.12611 2.5542 8.92989 2.5542 8.7253ZM0.49707 13.8681C0.49707 13.6635 0.578345 13.4673 0.723015 13.3227C0.867686 13.178 1.0639 13.0967 1.2685 13.0967H10.5256C10.7302 13.0967 10.9264 13.178 11.0711 13.3227C11.2157 13.4673 11.297 13.6635 11.297 13.8681C11.297 14.0727 11.2157 14.2689 11.0711 14.4136C10.9264 14.5583 10.7302 14.6396 10.5256 14.6396H1.2685C1.0639 14.6396 0.867686 14.5583 0.723015 14.4136C0.578345 14.2689 0.49707 14.0727 0.49707 13.8681Z" fill="#8A92A6"/>
</svg>
