<svg width="125" height="125" viewBox="0 0 125 125" fill="none" xmlns="http://www.w3.org/2000/svg">
<path d="M62.4997 0C70.7877 0 78.7362 3.29238 84.5967 9.15287C90.4572 15.0133 93.7495 22.9619 93.7495 31.2498C93.7495 39.5378 90.4572 47.4863 84.5967 53.3468C78.7362 59.2073 70.7877 62.4997 62.4997 62.4997C54.2117 62.4997 46.2632 59.2073 40.4027 53.3468C34.5422 47.4863 31.2498 39.5378 31.2498 31.2498C31.2498 22.9619 34.5422 15.0133 40.4027 9.15287C46.2632 3.29238 54.2117 0 62.4997 0ZM62.4997 78.1246C97.0308 78.1246 124.999 92.1089 124.999 109.374V124.999H0V109.374C0 92.1089 27.9686 78.1246 62.4997 78.1246Z" fill="white" fill-opacity="0.5"/>
</svg>
