<svg width="93" height="95" viewBox="0 0 93 95" fill="none" xmlns="http://www.w3.org/2000/svg">
<path d="M43.6408 34H30.6408L5.64077 87.5C5.64077 87.5 4.63877 90.3046 5.14077 92C5.46401 93.0917 6.64077 94.5 6.64077 94.5H59.1408L57.1408 90.5H24.1408C24.1408 90.5 22.1662 88.9317 21.6408 87.5C21.1026 86.0335 21.6408 83.5 21.6408 83.5L32.6408 58.75L43.6408 34Z" fill="white"/>
<path d="M0.256895 5.5L15.5 60L30.2569 29H49.7569L31.7569 69H89.7569C89.7569 69 91.6456 68.4606 92.2569 67.5C92.9907 66.3469 92.2569 64 92.2569 64L77.2569 5.5C77.2569 5.5 76.3061 3.17365 75.2569 2C74.4236 1.06788 72.7569 0 72.7569 0H2.2569C2.2569 0 0.724002 0.999058 0.256895 2C-0.321119 3.2386 0.256895 5.5 0.256895 5.5Z" fill="white"/>
</svg>
