<svg width="125" height="125" viewBox="0 0 125 125" fill="none" xmlns="http://www.w3.org/2000/svg">
<path d="M50.5186 6.11662L48.6718 4.95838C45.0572 2.74217 40.5456 1.45465 36.6672 2.66302C32.4986 3.96109 29.1743 7.17196 27.433 11.9949L24.9529 10.7179C20.6788 8.51753 18.4415 8.48323 16.5867 9.31695C15.1066 9.97917 13.5632 11.5727 11.8139 13.8998L33.554 30.7087C36.9575 31.8168 41.944 31.7905 46.9305 30.4977C51.9433 29.2049 56.9298 26.672 60.5707 23.2686L68.776 2.97962C61.5469 -2.73242 54.951 0.576076 50.5186 6.11662ZM64.5283 26.3027C60.0431 30.8406 53.368 33.9011 48.1705 35.2731C46.35 35.748 44.5295 36.091 42.7618 36.2757C41.7857 37.8851 40.9678 39.5208 40.3346 41.1566C41.601 47.5942 43.9755 52.8709 47.5373 57.1978L43.738 60.3638C41.5482 57.7255 39.5958 54.8761 38.1183 51.71C37.8809 57.831 39.2528 64.1631 41.4954 70.759L36.8255 72.342C32.7097 60.3111 31.3114 47.99 37.0894 36.3812C35.137 36.2229 33.2902 35.8535 31.5752 35.2467L31.4961 35.2203C30.3616 36.302 29.2799 37.4365 28.2509 38.6238C19.9216 48.2802 15.3335 61.129 17.7344 71.1283C19.0193 76.4842 21.3226 81.5498 24.6363 85.8767C29.4909 85.7712 34.0817 85.8767 38.2503 87.4598C40.229 87.2487 42.2606 87.1168 44.3712 87.1168C51.8906 87.1168 58.6975 88.5151 63.8423 90.9424C65.8475 91.8922 67.6679 93.0267 69.119 94.3195C69.119 92.9212 69.3301 91.4173 69.7522 90.3092C67.4041 88.093 65.9266 85.4018 65.9266 82.3413C65.9266 78.0936 68.7496 74.5846 72.8391 72.0518C72.8391 70.8381 73.0766 69.6772 73.4987 68.5691C70.834 66.2738 69.119 63.4243 69.119 60.1C69.119 58.0157 69.805 56.1161 70.9659 54.4012C69.805 52.7126 69.119 50.813 69.119 48.7287C69.119 47.6997 69.2773 46.7499 69.5675 45.8265C67.0083 43.5575 65.3989 40.7609 65.3989 37.5421C65.3989 34.3497 66.9819 31.5794 69.5148 29.3368C67.9581 28.1231 66.296 27.0942 64.5283 26.3027ZM93.9196 26.9095C87.0598 26.9095 80.8597 28.3606 76.6119 30.4977C72.3378 32.6347 70.3327 35.2731 70.3327 37.5421C70.3327 39.8374 72.3378 42.4758 76.6119 44.6129C80.8597 46.7499 87.0598 48.201 93.9196 48.201C96.9009 48.201 99.7239 47.9108 102.336 47.4359V42.9507C106.003 42.3966 109.037 41.3941 110.99 40.1013V44.7448C114.288 43.795 117.454 40.286 117.533 37.5421C117.533 35.2731 115.528 32.6347 111.254 30.4977C106.979 28.3606 100.806 26.9095 93.9196 26.9095ZM119.38 44.7712C118.509 45.6946 117.48 46.5652 116.319 47.3568L116.372 55.008C119.696 53.0292 121.253 50.7338 121.253 48.7287C121.253 47.4623 120.646 46.0903 119.38 44.7712ZM74.0527 48.8342C74.1319 51.1032 76.137 53.6624 80.332 55.7731C84.6062 57.9366 90.7799 59.3613 97.666 59.3613C101.967 59.3613 106.003 58.7808 109.459 57.831L109.644 50.6547C105.106 52.2377 99.7239 53.1084 93.9196 53.1084C86.4002 53.1084 79.5669 51.6045 74.3957 49.0189C74.2638 48.9661 74.1583 48.887 74.0527 48.8342ZM74.5804 58.0157C74.211 58.7281 74.0527 59.4404 74.0527 60.1C74.0527 62.3954 76.0579 65.0337 80.332 67.1708C84.6062 69.3079 90.7799 70.7326 97.666 70.7326C101.149 70.7326 104.447 70.3896 107.428 69.73V63.398C104.367 63.9784 101.096 64.2686 97.666 64.2686C90.1203 64.2686 83.287 62.7911 78.1158 60.1792C76.823 59.546 75.6357 58.8072 74.5804 58.0157ZM120.725 58.0157C119.116 59.1502 117.718 59.9945 116.082 60.7068V66.5904C119.591 64.5588 121.253 62.1843 121.253 60.1C121.253 59.4404 121.095 58.7281 120.725 58.0157ZM122.704 67.7249C122.176 68.2525 121.596 68.7538 120.963 69.2551V77.8034C123.68 75.9565 124.999 73.925 124.999 72.0781C124.999 70.6798 124.234 69.1759 122.704 67.7249ZM77.8256 71.4185C77.7992 71.656 77.7728 71.8671 77.7728 72.0781C77.7728 74.3735 79.778 76.9855 84.0521 79.1226C88.3262 81.286 94.5264 82.7107 101.386 82.7107C105.317 82.7107 109.064 82.2358 112.309 81.4443V73.5556C108.008 74.9276 103.022 75.6663 97.666 75.6663C90.1203 75.6663 83.287 74.1624 78.1158 71.5769C78.0103 71.5241 77.9311 71.4713 77.8256 71.4185ZM74.2374 77.0646C71.9421 78.7796 70.8603 80.6528 70.8603 82.3413C70.8603 84.6367 72.8655 87.2487 77.1396 89.4121C81.4138 91.5492 87.5875 92.9739 94.4736 92.9739C96.9801 92.9739 99.4073 92.7892 101.676 92.4462V87.6444H101.386C93.8404 87.6444 87.0071 86.1406 81.8359 83.5286C78.5379 81.8928 75.7941 79.703 74.2374 77.0646ZM117.111 85.138C115.026 85.8767 112.757 86.4836 110.33 86.8793V90.0717C110.831 89.8607 111.333 89.6496 111.808 89.4121C114.393 88.093 116.135 86.6155 117.111 85.138ZM119.538 89.9398C118.535 90.9424 117.375 91.8394 116.082 92.6573V100.203C119.591 98.1979 121.253 95.8233 121.253 93.739C121.253 92.5254 120.699 91.2062 119.538 89.9398ZM27.5385 90.6785C24.8474 90.7049 21.9452 91.0479 18.9375 91.7603C12.9194 93.1586 7.74559 95.7178 4.3685 98.5408C0.991403 101.338 -0.327776 104.187 0.0679778 106.218C0.463731 108.25 2.54803 110.123 6.6111 111.205C10.661 112.26 16.3255 112.313 22.341 110.915C24.7683 110.334 27.0372 109.596 29.1215 108.725V103.263C32.9735 101.549 35.8494 99.4907 37.1421 97.4855V103.923C40.3346 101.179 41.5746 98.4353 41.2052 96.4302C40.8358 94.3986 38.7252 92.5254 34.6621 91.47C32.6306 90.9424 30.2033 90.6522 27.5385 90.6785ZM44.5823 92.0505C45.2947 93.0794 45.796 94.2403 46.0598 95.5331C46.35 97.1161 46.2181 98.6464 45.7432 100.15C48.3552 100.836 50.7297 101.76 52.7876 102.921C53.9485 103.554 55.0302 104.319 55.98 105.11C58.3545 104.556 60.3597 103.765 61.7844 102.815V108.25C66.0321 106.245 67.9845 103.791 67.9845 101.839C67.9845 99.86 66.0321 97.4063 61.758 95.4012C57.5103 93.4224 51.3893 92.0769 44.5823 92.0505ZM74.0791 93.3697C74.0527 93.4752 74.0527 93.6071 74.0527 93.739C74.0527 96.0344 76.0579 98.6464 80.332 100.81C84.6062 102.947 90.7799 104.372 97.666 104.372C101.149 104.372 104.447 104.002 107.428 103.369V96.2719C103.523 97.3272 99.1171 97.9076 94.4736 97.9076C86.9279 97.9076 80.0946 96.4038 74.9234 93.8182C74.6332 93.6599 74.343 93.5016 74.0791 93.3697ZM74.8179 103.211C74.2902 104.081 74.0527 104.926 74.0527 105.744C74.0527 108.039 76.0579 110.651 80.332 112.814C84.6062 114.951 90.7799 116.376 97.666 116.376C101.149 116.376 104.447 116.007 107.428 115.374V108.408C104.367 108.989 101.096 109.305 97.666 109.305C90.1203 109.305 83.287 107.801 78.1158 105.189C76.9286 104.609 75.8204 103.949 74.8179 103.211ZM120.488 103.211C118.958 104.24 117.612 105.058 116.082 105.717V112.208C119.591 110.202 121.253 107.828 121.253 105.744C121.253 104.926 121.015 104.081 120.488 103.211ZM43.2895 104.635C42.3661 105.796 41.2844 106.904 40.0707 107.907C35.9549 111.363 30.1505 114.16 23.4491 115.717C21.0587 116.271 18.6842 116.614 16.4047 116.798C17.2489 118.197 18.7343 119.569 20.9083 120.782C24.5044 122.814 29.7811 124.186 35.6383 124.186C38.303 124.186 40.8358 123.895 43.1576 123.394V117.906C46.7985 117.352 49.859 116.35 51.8114 115.057V119.912C54.4498 118.065 55.7162 115.98 55.7162 114.002C55.7162 111.706 54.0012 109.253 50.3867 107.221C48.4343 106.139 46.007 105.242 43.2895 104.635Z" fill="white" fill-opacity="0.5"/>
</svg>
