<svg width="22" height="23" viewBox="0 0 22 23" fill="none" xmlns="http://www.w3.org/2000/svg">
<path d="M11.9163 11.7207V11.7299" stroke="white" stroke-width="1.75" stroke-linecap="round" stroke-linejoin="round"/>
<path d="M11.9163 11.7207V11.7299" stroke="white" stroke-opacity="0.2" stroke-width="1.75" stroke-linecap="round" stroke-linejoin="round"/>
<path d="M2.75 19.9707H19.25" stroke="white" stroke-width="1.75" stroke-linecap="round" stroke-linejoin="round"/>
<path d="M2.75 19.9707H19.25" stroke="white" stroke-opacity="0.2" stroke-width="1.75" stroke-linecap="round" stroke-linejoin="round"/>
<path d="M3.70801 19.9707C3.70801 20.454 4.09976 20.8457 4.58301 20.8457C5.06626 20.8457 5.45801 20.454 5.45801 19.9707H3.70801ZM13.2913 4.3457C13.7746 4.3457 14.1663 3.95395 14.1663 3.4707C14.1663 2.98745 13.7746 2.5957 13.2913 2.5957V4.3457ZM16.458 13.0957C16.458 12.6125 16.0663 12.2207 15.583 12.2207C15.0998 12.2207 14.708 12.6125 14.708 13.0957H16.458ZM14.708 19.9707C14.708 20.454 15.0998 20.8457 15.583 20.8457C16.0663 20.8457 16.458 20.454 16.458 19.9707H14.708ZM5.45801 19.9707V5.30404H3.70801V19.9707H5.45801ZM5.45801 5.30404C5.45801 4.77476 5.88707 4.3457 6.41634 4.3457V2.5957C4.92057 2.5957 3.70801 3.80827 3.70801 5.30404H5.45801ZM6.41634 4.3457H13.2913V2.5957H6.41634V4.3457ZM14.708 13.0957V19.9707H16.458V13.0957H14.708Z" fill="white"/>
<path d="M3.70801 19.9707C3.70801 20.454 4.09976 20.8457 4.58301 20.8457C5.06626 20.8457 5.45801 20.454 5.45801 19.9707H3.70801ZM13.2913 4.3457C13.7746 4.3457 14.1663 3.95395 14.1663 3.4707C14.1663 2.98745 13.7746 2.5957 13.2913 2.5957V4.3457ZM16.458 13.0957C16.458 12.6125 16.0663 12.2207 15.583 12.2207C15.0998 12.2207 14.708 12.6125 14.708 13.0957H16.458ZM14.708 19.9707C14.708 20.454 15.0998 20.8457 15.583 20.8457C16.0663 20.8457 16.458 20.454 16.458 19.9707H14.708ZM5.45801 19.9707V5.30404H3.70801V19.9707H5.45801ZM5.45801 5.30404C5.45801 4.77476 5.88707 4.3457 6.41634 4.3457V2.5957C4.92057 2.5957 3.70801 3.80827 3.70801 5.30404H5.45801ZM6.41634 4.3457H13.2913V2.5957H6.41634V4.3457ZM14.708 13.0957V19.9707H16.458V13.0957H14.708Z" fill="white" fill-opacity="0.2"/>
<path d="M12.833 6.26233C12.3498 6.26233 11.958 6.65408 11.958 7.13733C11.958 7.62058 12.3498 8.01233 12.833 8.01233V6.26233ZM19.2497 8.01233C19.7329 8.01233 20.1247 7.62058 20.1247 7.13733C20.1247 6.65408 19.7329 6.26233 19.2497 6.26233V8.01233ZM17.1184 3.76861C16.7767 3.4269 16.2227 3.4269 15.881 3.76861C15.5392 4.11032 15.5392 4.66434 15.881 5.00605L17.1184 3.76861ZM19.2497 7.13733L19.8684 7.75605C20.2101 7.41434 20.2101 6.86032 19.8684 6.51861L19.2497 7.13733ZM15.881 9.26861C15.5392 9.61032 15.5392 10.1643 15.881 10.506C16.2227 10.8478 16.7767 10.8478 17.1184 10.506L15.881 9.26861ZM12.833 8.01233H19.2497V6.26233H12.833V8.01233ZM15.881 5.00605L18.631 7.75605L19.8684 6.51861L17.1184 3.76861L15.881 5.00605ZM18.631 6.51861L15.881 9.26861L17.1184 10.506L19.8684 7.75605L18.631 6.51861Z" fill="white"/>
<path d="M12.833 6.26233C12.3498 6.26233 11.958 6.65408 11.958 7.13733C11.958 7.62058 12.3498 8.01233 12.833 8.01233V6.26233ZM19.2497 8.01233C19.7329 8.01233 20.1247 7.62058 20.1247 7.13733C20.1247 6.65408 19.7329 6.26233 19.2497 6.26233V8.01233ZM17.1184 3.76861C16.7767 3.4269 16.2227 3.4269 15.881 3.76861C15.5392 4.11032 15.5392 4.66434 15.881 5.00605L17.1184 3.76861ZM19.2497 7.13733L19.8684 7.75605C20.2101 7.41434 20.2101 6.86032 19.8684 6.51861L19.2497 7.13733ZM15.881 9.26861C15.5392 9.61032 15.5392 10.1643 15.881 10.506C16.2227 10.8478 16.7767 10.8478 17.1184 10.506L15.881 9.26861ZM12.833 8.01233H19.2497V6.26233H12.833V8.01233ZM15.881 5.00605L18.631 7.75605L19.8684 6.51861L17.1184 3.76861L15.881 5.00605ZM18.631 6.51861L15.881 9.26861L17.1184 10.506L19.8684 7.75605L18.631 6.51861Z" fill="white" fill-opacity="0.2"/>
</svg>
