<svg width="248" height="93" viewBox="0 0 248 93" fill="none" xmlns="http://www.w3.org/2000/svg">
<path d="M45.6408 31H32.6408L7.64077 84.5C7.64077 84.5 6.63877 87.3046 7.14077 89C7.46401 90.0917 8.64077 91.5 8.64077 91.5H61.1408L59.1408 87.5H26.1408C26.1408 87.5 24.1662 85.9317 23.6408 84.5C23.1026 83.0335 23.6408 80.5 23.6408 80.5L45.6408 31Z" fill="#DDE2FF"/>
<path d="M0.256895 5.5L15.5 60L30.2569 29H49.7569L31.7569 69H89.7569C89.7569 69 91.6456 68.4606 92.2569 67.5C92.9907 66.3469 92.2569 64 92.2569 64L77.2569 5.5C77.2569 5.5 76.3061 3.17365 75.2569 2C74.4236 1.06788 72.7569 0 72.7569 0H2.2569C2.2569 0 0.724002 0.999058 0.256895 2C-0.321119 3.2386 0.256895 5.5 0.256895 5.5Z" fill="#DDE2FF"/>
<path d="M102.143 92.5V64.5H105.103V92.5H102.143Z" fill="#DDE2FF"/>
<path d="M114.213 92.5V64.5H124.693C127.067 64.5 129.107 64.8867 130.813 65.66C132.52 66.4067 133.827 67.5 134.733 68.94C135.667 70.3533 136.133 72.0733 136.133 74.1C136.133 76.0733 135.667 77.78 134.733 79.22C133.827 80.6333 132.52 81.7267 130.813 82.5C129.107 83.2733 127.067 83.66 124.693 83.66H115.853L117.173 82.26V92.5H114.213ZM117.173 82.5L115.853 81.06H124.613C127.413 81.06 129.533 80.46 130.973 79.26C132.44 78.0333 133.173 76.3133 133.173 74.1C133.173 71.86 132.44 70.1267 130.973 68.9C129.533 67.6733 127.413 67.06 124.613 67.06H115.853L117.173 65.66V82.5Z" fill="#DDE2FF"/>
<path d="M136.647 92.5L149.447 64.5H152.367L165.167 92.5H162.047L150.287 66.22H151.487L139.727 92.5H136.647ZM141.687 85.02L142.567 82.62H158.847L159.727 85.02H141.687Z" fill="#DDE2FF"/>
<path d="M169.799 92.5V64.5H172.239L191.559 88.82H190.279V64.5H193.199V92.5H190.759L171.479 68.18H172.759V92.5H169.799Z" fill="#DDE2FF"/>
<path d="M204.978 77.02H219.778V79.54H204.978V77.02ZM205.298 89.94H222.138V92.5H202.338V64.5H221.538V67.06H205.298V89.94Z" fill="#DDE2FF"/>
<path d="M229.096 92.5V64.5H232.056V89.94H247.736V92.5H229.096Z" fill="#DDE2FF"/>
</svg>
