<svg width="139" height="132" viewBox="0 0 139 132" fill="none" xmlns="http://www.w3.org/2000/svg">
<path d="M7.02332 60.431C6.94873 59.5718 7.05353 58.7065 7.3311 57.89C7.60866 57.0735 8.05293 56.3236 8.63569 55.6878C9.21846 55.0521 9.92701 54.5445 10.7164 54.1971C11.5057 53.8498 12.3587 53.6703 13.2211 53.6701H25.1033C26.7537 53.6701 28.3364 54.3257 29.5034 55.4927C30.6704 56.6596 31.326 58.2424 31.326 59.8928V119.008C31.326 120.659 30.6704 122.241 29.5034 123.408C28.3364 124.575 26.7537 125.231 25.1033 125.231H18.3642C16.8067 125.231 15.3057 124.648 14.1577 123.595C13.0096 122.543 12.298 121.098 12.1633 119.546L7.02332 60.431ZM49.994 57.9482C49.994 55.3471 51.6119 53.0198 53.961 51.9122C59.0916 49.4915 67.8313 44.6285 71.7734 38.0543C76.8542 29.579 77.8125 14.2681 77.9681 10.7616C77.9899 10.27 77.9774 9.77841 78.0428 9.29304C78.8859 3.21659 90.6126 10.3136 95.1085 17.8181C97.5509 21.8877 97.862 27.2361 97.6069 31.4147C97.33 35.8826 96.0201 40.198 94.7351 44.4854L91.9971 53.6234H125.777C126.738 53.6234 127.687 53.8461 128.548 54.2741C129.408 54.7021 130.159 55.3238 130.739 56.0904C131.319 56.8569 131.714 57.7475 131.892 58.6923C132.07 59.637 132.027 60.6102 131.766 61.5355L115.058 120.701C114.69 122.006 113.905 123.154 112.823 123.972C111.741 124.79 110.422 125.232 109.066 125.231H56.2167C54.5664 125.231 52.9836 124.575 51.8166 123.408C50.6496 122.241 49.994 120.659 49.994 119.008V57.9482Z" stroke="white" stroke-opacity="0.5" stroke-width="12.4454" stroke-linecap="round" stroke-linejoin="round"/>
</svg>
