<svg width="22" height="23" viewBox="0 0 22 23" fill="none" xmlns="http://www.w3.org/2000/svg">
<rect x="3.66699" y="4.38733" width="5.5" height="5.5" rx="1" stroke="white" stroke-width="1.75" stroke-linecap="round" stroke-linejoin="round"/>
<rect x="3.66699" y="4.38733" width="5.5" height="5.5" rx="1" stroke="white" stroke-opacity="0.2" stroke-width="1.75" stroke-linecap="round" stroke-linejoin="round"/>
<rect x="12.833" y="4.38733" width="5.5" height="5.5" rx="1" stroke="white" stroke-width="1.75" stroke-linecap="round" stroke-linejoin="round"/>
<rect x="12.833" y="4.38733" width="5.5" height="5.5" rx="1" stroke="white" stroke-opacity="0.2" stroke-width="1.75" stroke-linecap="round" stroke-linejoin="round"/>
<rect x="3.66699" y="13.5541" width="5.5" height="5.5" rx="1" stroke="white" stroke-width="1.75" stroke-linecap="round" stroke-linejoin="round"/>
<rect x="3.66699" y="13.5541" width="5.5" height="5.5" rx="1" stroke="white" stroke-opacity="0.2" stroke-width="1.75" stroke-linecap="round" stroke-linejoin="round"/>
<path d="M12.833 15.4291C12.3498 15.4291 11.958 15.8208 11.958 16.3041C11.958 16.7873 12.3498 17.1791 12.833 17.1791V15.4291ZM18.333 17.1791C18.8163 17.1791 19.208 16.7873 19.208 16.3041C19.208 15.8208 18.8163 15.4291 18.333 15.4291V17.1791ZM16.458 13.5541C16.458 13.0708 16.0663 12.6791 15.583 12.6791C15.0998 12.6791 14.708 13.0708 14.708 13.5541H16.458ZM14.708 19.0541C14.708 19.5373 15.0998 19.9291 15.583 19.9291C16.0663 19.9291 16.458 19.5373 16.458 19.0541H14.708ZM12.833 17.1791H18.333V15.4291H12.833V17.1791ZM14.708 13.5541V19.0541H16.458V13.5541H14.708Z" fill="white"/>
<path d="M12.833 15.4291C12.3498 15.4291 11.958 15.8208 11.958 16.3041C11.958 16.7873 12.3498 17.1791 12.833 17.1791V15.4291ZM18.333 17.1791C18.8163 17.1791 19.208 16.7873 19.208 16.3041C19.208 15.8208 18.8163 15.4291 18.333 15.4291V17.1791ZM16.458 13.5541C16.458 13.0708 16.0663 12.6791 15.583 12.6791C15.0998 12.6791 14.708 13.0708 14.708 13.5541H16.458ZM14.708 19.0541C14.708 19.5373 15.0998 19.9291 15.583 19.9291C16.0663 19.9291 16.458 19.5373 16.458 19.0541H14.708ZM12.833 17.1791H18.333V15.4291H12.833V17.1791ZM14.708 13.5541V19.0541H16.458V13.5541H14.708Z" fill="white" fill-opacity="0.2"/>
</svg>
