<svg width="125" height="125" viewBox="0 0 125 125" fill="none" xmlns="http://www.w3.org/2000/svg">
<path d="M62.5 125C28.0372 125 0 96.9628 0 62.5C0 28.0372 28.0372 0 62.5 0C96.9628 0 125 28.0372 125 62.5C125 96.9628 96.9628 125 62.5 125ZM62.5 3.37838C29.902 3.37838 3.37838 29.902 3.37838 62.5C3.37838 95.098 29.902 121.622 62.5 121.622C95.098 121.622 121.622 95.098 121.622 62.5C121.622 29.902 95.098 3.37838 62.5 3.37838Z" fill="white" fill-opacity="0.5"/>
<path d="M33.707 92.9426L30.832 91.1689C34.1584 85.748 38.8233 81.2738 44.3782 78.1766C49.9332 75.0793 56.1915 73.463 62.5516 73.4831C75.4705 73.4831 87.2847 80.027 94.1564 90.9831L91.2949 92.777C88.2562 87.8955 84.0208 83.8713 78.9904 81.0859C73.9601 78.3006 68.3016 76.8464 62.5516 76.8615C56.768 76.8423 51.0768 78.3115 46.0252 81.1278C40.9736 83.9441 36.7315 88.0128 33.707 92.9426Z" fill="white" fill-opacity="0.5"/>
<path d="M44.4799 50.0303C46.3458 50.0303 47.8583 48.5178 47.8583 46.6519C47.8583 44.7861 46.3458 43.2736 44.4799 43.2736C42.6141 43.2736 41.1016 44.7861 41.1016 46.6519C41.1016 48.5178 42.6141 50.0303 44.4799 50.0303Z" fill="white" fill-opacity="0.5"/>
<path d="M80.5161 50.0303C82.3819 50.0303 83.8945 48.5178 83.8945 46.6519C83.8945 44.7861 82.3819 43.2736 80.5161 43.2736C78.6502 43.2736 77.1377 44.7861 77.1377 46.6519C77.1377 48.5178 78.6502 50.0303 80.5161 50.0303Z" fill="white" fill-opacity="0.5"/>
</svg>
