<svg width="27" height="27" viewBox="0 0 27 27" fill="none" xmlns="http://www.w3.org/2000/svg">
<path d="M16.3471 13.3703L7.35352 11.7859V23.4932C7.35362 23.6204 7.37878 23.7463 7.42755 23.8638C7.47632 23.9812 7.54775 24.0879 7.63776 24.1778C7.72777 24.2677 7.83459 24.3389 7.95214 24.3875C8.06968 24.4361 8.19564 24.461 8.32283 24.4609H23.8416C23.9689 24.4612 24.095 24.4364 24.2128 24.3879C24.3305 24.3395 24.4375 24.2683 24.5277 24.1784C24.6179 24.0885 24.6895 23.9817 24.7383 23.8641C24.7872 23.7466 24.8124 23.6205 24.8125 23.4932V19.1796L16.3471 13.3703Z" fill="#185C37"/>
<path d="M16.3471 3.33594H8.32283C8.19564 3.33583 8.06968 3.36078 7.95214 3.40935C7.83459 3.45792 7.72777 3.52917 7.63776 3.61903C7.54775 3.70889 7.47632 3.8156 7.42755 3.93306C7.37878 4.05052 7.35362 4.17644 7.35352 4.30363V8.61719L16.3471 13.8984L21.1091 15.4828L24.8125 13.8984V8.61719L16.3471 3.33594Z" fill="#21A366"/>
<path d="M7.35352 8.61719H16.3471V13.8984H7.35352V8.61719Z" fill="#107C41"/>
<path opacity="0.1" d="M13.7901 7.56104H7.35352V20.7642H13.7901C14.0466 20.7629 14.2923 20.6606 14.4739 20.4795C14.6554 20.2983 14.7583 20.0529 14.7603 19.7965V8.52872C14.7583 8.27225 14.6554 8.02686 14.4739 7.84573C14.2923 7.6646 14.0466 7.56231 13.7901 7.56104Z" fill="black"/>
<path opacity="0.2" d="M13.2612 8.08911H7.35352V21.2922H13.2612C13.5177 21.291 13.7633 21.1887 13.9449 21.0075C14.1265 20.8264 14.2294 20.581 14.2313 20.3245V9.0568C14.2294 8.80032 14.1265 8.55494 13.9449 8.3738C13.7633 8.19267 13.5177 8.09039 13.2612 8.08911Z" fill="black"/>
<path opacity="0.2" d="M13.2612 8.08911H7.35352V20.236H13.2612C13.5177 20.2347 13.7633 20.1324 13.9449 19.9513C14.1265 19.7702 14.2294 19.5248 14.2313 19.2683V9.0568C14.2294 8.80032 14.1265 8.55494 13.9449 8.3738C13.7633 8.19267 13.5177 8.09039 13.2612 8.08911Z" fill="black"/>
<path opacity="0.2" d="M12.7323 8.08911H7.35352V20.236H12.7323C12.9887 20.2347 13.2344 20.1324 13.416 19.9513C13.5976 19.7702 13.7005 19.5248 13.7024 19.2683V9.0568C13.7005 8.80032 13.5976 8.55494 13.416 8.3738C13.2344 8.19267 12.9887 8.09039 12.7323 8.08911Z" fill="black"/>
<path d="M3.03262 8.08911H12.7322C12.9892 8.0889 13.2357 8.1907 13.4176 8.37216C13.5995 8.55361 13.7019 8.79986 13.7024 9.0568V18.7402C13.7019 18.9971 13.5995 19.2434 13.4176 19.4248C13.2357 19.6063 12.9892 19.7081 12.7322 19.7079H3.03262C2.90537 19.7081 2.77932 19.6832 2.66168 19.6347C2.54405 19.5862 2.43712 19.5149 2.34703 19.4251C2.25693 19.3352 2.18543 19.2284 2.13661 19.1109C2.08779 18.9934 2.06261 18.8674 2.0625 18.7402V9.0568C2.06261 8.92955 2.08779 8.80356 2.13661 8.68604C2.18543 8.56853 2.25693 8.46179 2.34703 8.37192C2.43712 8.28205 2.54405 8.21082 2.66168 8.16229C2.77932 8.11377 2.90537 8.0889 3.03262 8.08911Z" fill="url(#paint0_linear_151_2590)"/>
<path d="M5.06836 17.0453L7.10855 13.8896L5.2398 10.7517H6.74048L7.76017 12.761C7.85442 12.9511 7.92267 13.0925 7.95355 13.1868H7.96736C8.03398 13.034 8.10467 12.887 8.17861 12.7431L9.26898 10.755H10.6502L8.73355 13.875L10.699 17.0478H9.22917L8.05105 14.8451C7.99634 14.7504 7.94986 14.6512 7.91211 14.5485H7.89261C7.85826 14.6485 7.81245 14.7442 7.75611 14.8337L6.54305 17.0453H5.06836Z" fill="white"/>
<path d="M23.842 3.33594H16.3467V8.61719H24.8121V4.30363C24.812 4.17637 24.7868 4.05039 24.738 3.93287C24.6892 3.81536 24.6177 3.70861 24.5276 3.61874C24.4375 3.52887 24.3306 3.45764 24.2129 3.40912C24.0953 3.36059 23.9692 3.33573 23.842 3.33594Z" fill="#33C481"/>
<path d="M16.3467 13.8984H24.8121V19.1797H16.3467V13.8984Z" fill="#107C41"/>
<defs>
<linearGradient id="paint0_linear_151_2590" x1="4.08887" y1="7.32861" x2="11.676" y2="20.4684" gradientUnits="userSpaceOnUse">
<stop stop-color="#18884F"/>
<stop offset="0.5" stop-color="#117E43"/>
<stop offset="1" stop-color="#0B6631"/>
</linearGradient>
</defs>
</svg>
