<svg width="19" height="19" viewBox="0 0 19 19" fill="none" xmlns="http://www.w3.org/2000/svg">
<path fill-rule="evenodd" clip-rule="evenodd" d="M14.7358 0.793918C14.8893 0.742703 15.055 0.741069 15.2095 0.789247C15.364 0.837424 15.4995 0.932973 15.5967 1.06237L18.6823 5.17659C18.7431 5.25763 18.7873 5.34985 18.8125 5.44798C18.8376 5.54612 18.8432 5.64824 18.8288 5.74853C18.8145 5.84881 18.7806 5.9453 18.729 6.03247C18.6774 6.11963 18.6091 6.19578 18.528 6.25657C18.447 6.31735 18.3548 6.36157 18.2566 6.38671C18.1585 6.41186 18.0564 6.41742 17.9561 6.4031C17.8558 6.38877 17.7593 6.35483 17.6722 6.30322C17.585 6.2516 17.5088 6.18333 17.4481 6.10228L15.7509 3.83947V17.9821C15.7509 18.1867 15.6697 18.3829 15.525 18.5276C15.3803 18.6722 15.1841 18.7535 14.9795 18.7535C14.7749 18.7535 14.5787 18.6722 14.4341 18.5276C14.2894 18.3829 14.2081 18.1867 14.2081 17.9821V1.52522C14.2082 1.36338 14.2593 1.20568 14.3539 1.07444C14.4486 0.943195 14.5822 0.845058 14.7358 0.793918ZM0.836914 5.63943C0.836914 5.43484 0.918188 5.23863 1.06286 5.09396C1.20752 4.94929 1.40374 4.86802 1.60833 4.86802H10.8653C11.0699 4.86802 11.2661 4.94929 11.4108 5.09396C11.5555 5.23863 11.6367 5.43484 11.6367 5.63943C11.6367 5.84403 11.5555 6.04024 11.4108 6.18491C11.2661 6.32958 11.0699 6.41085 10.8653 6.41085H1.60833C1.40374 6.41085 1.20752 6.32958 1.06286 6.18491C0.918188 6.04024 0.836914 5.84403 0.836914 5.63943ZM2.89402 10.7822C2.89402 10.5776 2.9753 10.3814 3.11996 10.2367C3.26463 10.0921 3.46084 10.0108 3.66544 10.0108H10.8653C11.0699 10.0108 11.2661 10.0921 11.4108 10.2367C11.5555 10.3814 11.6367 10.5776 11.6367 10.7822C11.6367 10.9868 11.5555 11.183 11.4108 11.3277C11.2661 11.4723 11.0699 11.5536 10.8653 11.5536H3.66544C3.46084 11.5536 3.26463 11.4723 3.11996 11.3277C2.9753 11.183 2.89402 10.9868 2.89402 10.7822ZM4.95113 15.925C4.95113 15.7204 5.0324 15.5242 5.17707 15.3795C5.32174 15.2348 5.51795 15.1536 5.72254 15.1536H10.8653C11.0699 15.1536 11.2661 15.2348 11.4108 15.3795C11.5555 15.5242 11.6367 15.7204 11.6367 15.925C11.6367 16.1296 11.5555 16.3258 11.4108 16.4704C11.2661 16.6151 11.0699 16.6964 10.8653 16.6964H5.72254C5.51795 16.6964 5.32174 16.6151 5.17707 16.4704C5.0324 16.3258 4.95113 16.1296 4.95113 15.925Z" fill="#8A92A6"/>
</svg>
